<svg width="600" height="600" viewBox="0 0 600 600" fill="none" xmlns="http://www.w3.org/2000/svg">
<path d="M364.278 115.673C364.278 115.673 370.224 95.2628 402.271 69.379C433.013 44.5462 409.413 10.2505 364.278 22.9024C333.119 31.6031 343.705 3 300.002 3C256.3 3 266.885 31.6031 235.727 22.9024C190.592 10.2505 166.992 44.545 197.734 69.379C229.781 95.264 235.727 115.673 235.727 115.673H364.278Z" fill="#4B4B4B"/>
<path d="M378.761 146.09C378.761 153.395 372.834 159.321 365.546 159.321H234.457C227.17 159.321 221.242 153.395 221.242 146.09C221.242 138.784 227.169 132.875 234.457 132.875H365.546C372.833 132.876 378.761 138.784 378.761 146.09Z" fill="#4B4B4B"/>
<path d="M364.276 176.461H235.724C212.342 199.844 98 283.407 98 394.956C98 506.505 188.451 596.956 300 596.956C411.549 596.956 502 506.505 502 394.956C502 283.407 387.66 199.845 364.276 176.461ZM370.366 391.911H321.897L316.676 399.996V419.427H370.366V419.482V443.028V446.979H316.676V488.561H283.324V446.979H229.634V443.028V419.482V419.427H283.324V400.032L278.103 391.911H229.634V368.383H262.968L234.636 324.264H262.877L299.981 382.014L337.123 324.264H365.364L337.051 368.383H370.367V391.911H370.366Z" fill="#4B4B4B"/>
</svg>
