<svg xmlns="http://www.w3.org/2000/svg" width="247.525" height="340" viewBox="0 0 247.525 340">
  <g id="グループ_497" data-name="グループ 497" transform="translate(-839.588 -23989)">
    <g id="お店っぽい建物アイコン" transform="translate(839.588 24100.01)">
      <path id="パス_1411" data-name="パス 1411" d="M0,19.169v228.99H247.526V19.169ZM154.284,33.588h32.2V78.855a16.1,16.1,0,0,1-32.2,0Zm-46.623,0h32.2V78.855a16.1,16.1,0,0,1-32.2,0V33.588Zm-46.619,0h32.2V78.855a16.1,16.1,0,0,1-32.2,0V33.588Zm-46.623,0h32.2V78.855a16.1,16.1,0,0,1-32.2,0V33.588ZM233.106,233.74H163.87V187.1H83.66V233.74H14.419v-129a30.414,30.414,0,0,0,39.413-6.217,30.473,30.473,0,0,0,46.619,0,30.478,30.478,0,0,0,46.623,0,30.478,30.478,0,0,0,46.623,0,30.413,30.413,0,0,0,39.409,6.213Zm0-154.885a16.1,16.1,0,0,1-32.2,0V33.588h32.2V78.855Z" transform="translate(0 -19.169)" fill="#3d2784"/>
      <rect id="長方形_1026" data-name="長方形 1026" width="24.033" height="28.162" transform="translate(51.667 109.171)" fill="#3d2784"/>
      <rect id="長方形_1027" data-name="長方形 1027" width="24.033" height="28.162" transform="translate(171.825 109.171)" fill="#3d2784"/>
      <rect id="長方形_1028" data-name="長方形 1028" width="24.036" height="28.162" transform="translate(111.745 109.171)" fill="#3d2784"/>
    </g>
    <text id="_3" data-name="3" transform="translate(961.949 24177)" fill="#c41d00" font-size="186" font-family="Impact"><tspan x="-49.315" y="0">3</tspan></text>
  </g>
</svg>
