<svg width="200" height="200" viewBox="0 0 200 200" fill="none" xmlns="http://www.w3.org/2000/svg">
<path d="M118.751 44.7462C118.751 44.7462 120.532 38.6332 130.13 30.8808C139.338 23.4433 132.269 13.1716 118.751 16.9609C109.419 19.5668 112.59 11 99.5005 11C86.4113 11 89.5818 19.5668 80.2496 16.9609C66.7316 13.1716 59.6631 23.4429 68.8706 30.8808C78.4689 38.6335 80.2496 44.7462 80.2496 44.7462H118.751Z" fill="#4B4B4B"/>
<path d="M123.089 53.8563C123.089 56.0442 121.314 57.8193 119.131 57.8193H79.8694C77.6871 57.8193 75.9116 56.0442 75.9116 53.8563C75.9116 51.6684 77.6868 49.8984 79.8694 49.8984H119.131C121.314 49.8988 123.089 51.6684 123.089 53.8563Z" fill="#4B4B4B"/>
<path d="M118.751 62.9531H80.2491C73.2459 69.9564 39 94.984 39 128.394C39 161.803 66.0905 188.894 99.5 188.894C132.91 188.894 160 161.803 160 128.394C160 94.984 125.754 69.9567 118.751 62.9531ZM120.575 127.481H106.058L104.495 129.903V135.723H120.575V135.739V142.791V143.975H104.495V156.429H94.5054V143.975H78.425V142.791V135.739V135.723H94.5054V129.914L92.9419 127.481H78.425V120.435H88.4087L79.9232 107.221H88.3815L99.4944 124.517L110.618 107.221H119.077L110.597 120.435H120.575V127.481H120.575Z" fill="#4B4B4B"/>
</svg>
